<svg xmlns="http://www.w3.org/2000/svg" version="1.1" width="600px" height="600px" viewBox="0 0 200 200" style="overflow:hidden!important;"><g id="svga-group-wrapper"><g id="svga-group-backs-single"><path id="SvgjsPath7790" d="M0 0h200v200H0V0z" fill="#ecf0f1" stroke-width="none" opacity="1"></path></g><g id="svga-group-humanwrap-move" transform="matrix(1,0,0,1,0,0)"><g id="svga-group-humanwrap"><g id="svga-group-hair-back-move" transform="matrix(1,1.3877787807814457e-16,-1.3877787807814457e-16,1,1.4210854715202004e-14,0)"><g id="svga-group-hair-back"></g></g><g id="svga-group-humanbody-back"><path id="SvgjsPath7865" d="m168.5 219.5-1.7-21.5s.7-9-8.8-15.3-23.4-10.1-29.5-14.2c-6.1-4.1-9.2-4.5-9-16.9s.9-40.3.9-40.3H79.6s.7 27.9.9 40.3c.2 12.4-2.9 12.8-9 16.9-6.1 4.1-20 7.9-29.5 14.2S33.2 198 33.2 198l-1.6 21.5h136.9z" fill="#f3d4cf" stroke-width="none" opacity="1" stroke="none"></path></g><g id="svga-group-chinshadow-single"><path id="SvgjsPath7861" d="M100 163.9c5.96 0 13.3-4.65 19.53-9.3-.03-.92-.04-1.91-.03-3 .2-12.4.9-40.3.9-40.3H79.6s.7 27.9.9 40.3c.02 1.09.01 2.08-.03 3 6.23 4.65 13.57 9.3 19.53 9.3z" fill="#d4958a" stroke-width="none" opacity="0.65" stroke="none"></path></g><g id="svga-group-humanbody-front"><path id="SvgjsPath7866" d="M73.8 175.9c5.1 2.9 11.8 5.2 17.6 5.7.4 0 .4-.6.1-.7-2.8-1.1-5.9-1.7-8.8-2.6-2.9-.9-5.8-2-8.8-2.7-.1-.1-.3.2-.1.3zm35.2 6.2c5.3-.6 11.3-3 15.9-5.8.3-.2.1-.6-.2-.5-2.6.9-5.2 2-7.8 2.9-2.6.9-5.4 1.5-8 2.5-.5.1-.5.9.1.9z" fill="#d4958a" stroke-width="none" opacity="1" stroke="none"></path><path id="SvgjsPath7867" d="m168.4 219.4-2.1-21.4c0-2.2-.5-4.5-1.5-6.6-.9-2.1-2.3-3.9-3.9-5.5s-3.5-2.8-5.5-4c-2-1.2-4.1-2.2-6.2-3.1-4.2-1.9-8.6-3.6-12.9-5.4-2.2-.9-4.3-1.9-6.4-3-1.1-.6-2.1-1.2-3-1.9-1-.6-2-1.2-3-1.9s-2-1.5-2.8-2.6c-.8-1-1.3-2.2-1.7-3.4-.7-2.4-.8-4.8-.8-7.2 0-4.7.2-9.4.3-14.1.2-9.4.6-18.7.9-28l.6.6-20.4-.2-20.4-.1.3-.3.7 28c.1 4.7.3 9.3.4 14 0 2.4-.1 4.7-.8 7.1-.3 1.2-.9 2.3-1.6 3.3-.8 1-1.7 1.8-2.7 2.5s-2 1.3-2.9 2c-.9.6-1.9 1.3-3 1.9-2.1 1.2-4.2 2.1-6.4 3.1-4.3 1.9-8.6 3.6-12.8 5.6-2.1 1-4.2 2.1-6.1 3.2-2 1.2-3.8 2.4-5.4 4-1.6 1.6-2.9 3.4-3.8 5.4-.4 1-.8 2.1-1 3.1-.2 1.1-.4 2.2-.3 3.2v.2l-1.5 21.5-1-1.1 34 .1c11.3 0 22.7.1 34.1.2l34.2.3 34.4.5zm.2.2-34 .4-34.2.3c-11.4.1-22.9.2-34.4.2l-34.4.1h-1.1l.1-1.1 1.7-21.5v.1c-.1-5.1 2.2-9.8 5.7-13.3 1.7-1.7 3.8-3.1 5.8-4.3 2-1.2 4.2-2.2 6.3-3.2 4.3-2 8.7-3.7 13-5.4 2.1-.9 4.3-1.8 6.3-2.9 1-.5 1.9-1.1 3-1.8 1-.6 2-1.2 2.9-1.9.9-.6 1.8-1.4 2.4-2.2.7-.9 1.2-1.9 1.5-2.9.6-2.1.8-4.5.8-6.8 0-4.6-.1-9.3-.2-14l-.6-28v-.3h.3l20.4-.1 20.4-.2h.6v.6c-.1 9.3-.2 18.7-.4 28-.1 4.7-.2 9.4-.2 14 .1 2.3.2 4.6.8 6.7.3 1.1.8 2 1.4 2.9.6.8 1.4 1.6 2.4 2.2.9.6 1.9 1.3 2.9 1.9 1 .7 1.9 1.3 2.9 1.8 2 1.1 4.1 2.1 6.3 3 4.3 1.8 8.6 3.6 12.9 5.6 2.1 1 4.2 2.1 6.2 3.3 2 1.2 4 2.6 5.7 4.3 3.4 3.4 5.6 8.1 5.4 13v-.1l1.4 21.6zm-112.8-.4 1.9-13.8.1 13.8h-2zm88.6 0-1.9-13.8-.1 13.8h2z" fill="#c5796d" stroke-width="none" opacity="1" stroke="none"></path></g><g id="svga-group-clothes-single"><path id="SvgjsPath9472" d="m143.2 220 .1-3.6 26.8-2.6s-1.2-16.5-1.9-20-2.3-8.6-12.1-14-27.7-12.4-27.7-12.4c-31.6 30.5-56-.1-56.7 0 0 0-17.9 7-27.7 12.4s-11.4 10.5-12.1 14-1.9 20-1.9 20l26.8 2.6v3.6h86.4z" fill="#a44974" stroke-width="none" opacity="1" stroke="none"></path><path id="SvgjsPath9473" d="M170.7 213.8c-.4-5.8-.7-11.6-1.3-17.4-.3-2.9-.9-6-2.6-8.6-1.6-2.6-3.9-4.6-6.4-6.3-2.4-1.7-5.1-3.1-7.7-4.4-2.6-1.3-5.3-2.5-7.9-3.7-5.3-2.4-10.7-4.5-16.2-6.6-.2-.1-.5 0-.7.1-3.8 3.8-8 7.1-12.7 9.6-4.7 2.5-9.9 4-15.2 4.1-2.7 0-5.3-.3-7.9-.9-2.6-.7-5.1-1.7-7.4-2.9s-4.6-2.7-6.7-4.3c-1.1-.8-2.1-1.7-3.1-2.6-.5-.4-1-.9-1.4-1.4l-.7-.7-.4-.4-.2-.2-.1-.1-.1-.1s-.2-.1-.3-.1h-.1c-5.4 2.1-10.8 4.2-16.2 6.5-2.7 1.1-5.3 2.3-8 3.6-2.6 1.3-5.2 2.6-7.7 4.3-2.4 1.7-4.8 3.7-6.4 6.3-1.7 2.6-2.4 5.7-2.7 8.6-.7 5.8-1.1 11.6-1.6 17.4 0 .5.4 1 .9 1.1l13.4 1.3 12.5 1.2v2.7c0 .6.5 1 1 1 7.3 0 14.5 0 21.8-.1l21.7-.2 43-.6.2-3.5 13.2-1 13.4-1.1c.4 0 .6-.3.6-.6zm-14.1.8-13.4 1.6c-.1 0-.2.1-.2.2l.1 3.6-43.4-.6-21.5-.2c-6.8-.1-13.6-.1-20.4-.1v-2.6c0-.5-.4-1-.9-1L43.5 214 31 212.9c.4-5.4.8-10.9 1.3-16.3.3-2.9.9-5.6 2.3-7.9 1.5-2.3 3.6-4.2 5.9-5.9 2.3-1.6 4.8-3 7.4-4.3s5.2-2.6 7.8-3.8c5.2-2.4 10.5-4.6 15.8-6.8l.2.1.4.3.7.7c.5.5 1 .9 1.5 1.4 1 .9 2.1 1.8 3.1 2.6 2.2 1.6 4.4 3.1 6.8 4.4 4.8 2.5 10.2 3.9 15.6 3.9s10.8-1.5 15.7-3.9c4.7-2.4 9-5.6 12.8-9.2 5.2 2.1 10.4 4.4 15.6 6.7 2.6 1.2 5.3 2.4 7.8 3.7 2.6 1.3 5.1 2.6 7.4 4.2 2.3 1.6 4.5 3.5 6 5.8s2.2 5 2.4 7.9c.3 2.9.6 5.8.9 8.6l.7 8.1-12.5 1.4zm-100.5-7.3-.3-1.1-.4-1c-.9-2.8-2.3-5.4-3.8-7.9-1.6-2.5-3.4-4.8-5.5-6.8s-4.4-3.9-7-5.1c1.2.8 2.3 1.7 3.4 2.6 1.1.9 2.1 1.9 3.1 3 1.9 2.1 3.7 4.4 5.2 6.8.4.6.7 1.2 1.1 1.8.4.6.7 1.2 1 1.9.3.6.7 1.3 1 1.9.3.7.6 1.3.9 2l.4 1 .4 1 .7 2c.5 1.4.8 2.8 1.3 4.1-.3-1.4-.5-2.9-.9-4.3l-.6-1.9zm92.9-9.9c-1.5 2.5-2.9 5.1-3.8 7.9l-.4 1-.3 1.1-.6 2.1c-.3 1.4-.6 2.8-.9 4.3.5-1.4.8-2.8 1.3-4.1l.7-2 .4-1 .4-1c.3-.6.6-1.3.9-2 .3-.6.6-1.3 1-1.9.3-.6.6-1.3 1-1.9.4-.6.7-1.2 1.1-1.8 1.5-2.4 3.3-4.7 5.2-6.8.9-1.1 2-2.1 3.1-3 1.1-1 2.2-1.9 3.4-2.6-2.6 1.3-4.9 3.1-7 5.1-2.1 1.8-3.9 4.2-5.5 6.6z" fill="#852150" stroke-width="none" opacity="1" stroke="none"></path></g><g id="svga-group-head" transform="matrix(1,1.3877787807814457e-16,-1.3877787807814457e-16,1,1.4210854715202004e-14,0)"><g id="svga-group-ears-left-move" transform="matrix(1,0,0,1,0,0)"><g id="svga-group-ears-left"><path id="SvgjsPath7811" d="M65.1 101.2s-1.7-4.8-3.2-7.5-3.4-6-6.3-6.8c-2.9-.8-3.8 3.7-2.7 7.8 1.1 4.1 4 13.1 4.7 16.6s1.7 7.7 3.4 7.1 6.8-7.1 4.1-17.2z" fill="#f3d4cf" stroke-width="none" opacity="1" stroke="none"></path><path id="SvgjsPath7812" d="M65.9 105.9c.1 1.6.1 3.2-.1 4.8-.5 3.1-1.8 6-3.8 7.9l-.4.3c-.2.1-.3.2-.5.3-.4.1-.9 0-1.3-.3-.7-.6-1.1-1.4-1.4-2.2-.6-1.6-.9-3.1-1.2-4.7-.3-1.5-.7-3-1.1-4.6l-1.2-4.6c-.4-1.5-.8-3-1.3-4.6l-.5-2.2c-.2-.8-.4-1.5-.6-2.3-.2-.8-.2-1.6-.2-2.4s.1-1.6.3-2.4.6-1.5 1.1-2c.6-.5 1.3-.6 2-.4 1.3.3 2.5 1.1 3.5 2.2s1.8 2.5 2.5 3.8c.7 1.4 1.3 2.8 1.9 4.3.6 1.5 1.1 2.9 1.6 4.4.3 1.6.6 3.1.7 4.7zM61.1 93c-.8-1.3-1.6-2.4-2.5-3.4s-2-1.7-3.1-2c-.5-.2-1-.1-1.5.2-.4.3-.8.8-1 1.5-.4 1.3-.5 2.9-.2 4.5.1.8.3 1.5.5 2.3s.4 1.5.7 2.3c.5 1.5 1 3 1.4 4.5.5 1.5 1 3 1.4 4.5.5 1.5.9 3 1.2 4.6.3 1.5.7 3.1 1.2 4.4.3.7.6 1.3.9 1.5.2.1.3.2.5.1.1 0 .2-.1.3-.2l.3-.3c.9-.8 1.6-1.9 2.3-3.1.6-1.2 1.1-2.5 1.5-3.9.7-2.8.6-6.1-.2-9.2-.9-3-2.1-5.8-3.7-8.3z" fill="#e4b3ab" stroke-width="none" opacity="1" stroke="none"></path><path id="SvgjsPath7813" d="M53.8 89.9c1.8-.8 3.4 1.3 4.6 3.1 1.5 2.3 2.5 5.2 2.8 8.2v.2c0 .2 0 .5.1.7 0 .2-.2.2-.2 0-.1-.4-.2-.8-.3-1.3 0-.1-.1-.2-.2-.3-1.2-.6-1.7-.3-1.7.8 0 .7.1 1.4.3 2.1.3 1.1.8 2.2 1.2 3.3.1.2-.2.4-.3.2-.9-1.5-2.4-5-1.4-6.8.5-.9 1.3-.8 1.8-.2-.5-1.9-1.1-4.1-2.1-5.9-2 4.2-.9 8.7.1 13.4 0 .2-.2.3-.2.1-1.3-4.4-2.6-10.1 0-13.7-1.1-2.1-2.6-3.7-4.5-3.6-.1.1-.2-.2 0-.3z" fill="#d4958a" stroke-width="none" opacity="1" stroke="none"></path><path id="SvgjsPath7814" d="M61.1 108.8c.1 1.1 0 2.2-.5 3-.1.1-.2 0-.1-.1.3-.9.6-1.8.5-2.9-.1-.1 0-.2.1 0z" fill="#d4958a" stroke-width="none" opacity="1" stroke="none"></path></g></g><g id="svga-group-ears-right-move" transform="matrix(1,0,0,1,0,0)"><g id="svga-group-ears-right"><path id="SvgjsPath7815" d="M134.9 101.2s1.7-4.8 3.2-7.5 3.4-6 6.3-6.8c2.9-.8 3.8 3.7 2.7 7.8-1.1 4.1-4 13.1-4.7 16.6s-1.7 7.7-3.4 7.1-6.8-7.1-4.1-17.2z" fill="#f3d4cf" stroke-width="none" opacity="1" stroke="none"></path><path id="SvgjsPath7816" d="M134.9 101.2c.5-1.5 1.1-2.9 1.6-4.4s1.2-2.9 1.9-4.3 1.5-2.7 2.5-3.8c1-1.1 2.2-2 3.5-2.2.7-.2 1.4 0 2 .4.6.5.9 1.2 1.1 2 .2.8.3 1.6.3 2.4s-.1 1.6-.2 2.4c-.1.8-.4 1.6-.6 2.3l-.6 2.3c-.4 1.5-.8 3-1.3 4.6l-1.2 4.6c-.4 1.5-.8 3-1.1 4.6s-.6 3.2-1.2 4.7c-.3.8-.6 1.6-1.4 2.2-.4.3-.9.4-1.3.3-.2-.1-.3-.2-.5-.3l-.4-.3c-2-1.9-3.3-4.8-3.8-7.9-.3-1.6-.3-3.2-.1-4.8.1-1.7.4-3.2.8-4.8zm.1.1c-.8 3-.9 6.3-.2 9.2.4 1.4.9 2.7 1.5 3.9.6 1.2 1.4 2.3 2.3 3.1l.3.3c.1 0 .2.1.3.2.2.1.3 0 .5-.1.3-.3.7-.9.9-1.5.5-1.3.9-2.9 1.2-4.4.3-1.6.8-3.1 1.2-4.6.5-1.5 1-3 1.4-4.5.5-1.5 1-3 1.4-4.5.2-.7.5-1.5.7-2.3s.4-1.5.5-2.3c.3-1.5.2-3.1-.2-4.5-.2-.6-.6-1.2-1-1.5s-1-.3-1.5-.2c-1.1.3-2.1 1.1-3.1 2-.9 1-1.7 2.2-2.5 3.4-1.4 2.5-2.6 5.3-3.7 8.3z" fill="#e4b3ab" stroke-width="none" opacity="1" stroke="none"></path><path id="SvgjsPath7817" d="M146.2 89.9c-1.8-.8-3.4 1.3-4.6 3.1-1.5 2.3-2.5 5.2-2.8 8.2v.2c0 .2 0 .5-.1.7 0 .2.2.2.2 0 .1-.4.2-.8.3-1.3 0-.1.1-.2.2-.3 1.2-.6 1.7-.3 1.7.8 0 .7-.1 1.4-.3 2.1-.3 1.1-.8 2.2-1.2 3.3-.1.2.2.4.3.2.9-1.5 2.4-5 1.4-6.8-.5-.9-1.3-.8-1.8-.2.5-1.9 1.1-4.1 2.1-5.9 2 4.2.9 8.7-.1 13.4 0 .2.2.3.2.1 1.3-4.4 2.6-10.1 0-13.7 1.1-2.1 2.6-3.7 4.5-3.6.1.1.2-.2 0-.3z" fill="#d4958a" stroke-width="none" opacity="1" stroke="none"></path><path id="SvgjsPath7818" d="M138.9 108.8c-.1 1.1 0 2.2.5 3 .1.1.2 0 .1-.1-.3-.9-.6-1.8-.5-2.9.1-.1 0-.2-.1 0z" fill="#d4958a" stroke-width="none" opacity="1" stroke="none"></path></g></g><g id="svga-group-faceshape-wrap"><g id="svga-group-faceshape-single"><path id="SvgjsPath7847" d="M100.01 41.36C78.61 41.36 60.2 56.9 59 85.4c0 0 .2 20.8 2.8 34.8 1.5 8 4 11.7 10.5 17 6.5 5.4 18.69 15.64 27.69 15.64s21.21-10.24 27.71-15.64 9-9 10.5-17c2.6-14 2.8-34.8 2.8-34.8-1.2-28.4-19.59-44.04-40.99-44.04z" fill="#f3d4cf" stroke-width="none" opacity="1" stroke="none"></path><path id="SvgjsPath7848" d="M100 41.3c-21.4 0-39.8 15.6-41 44.1 0 0 .2 20.8 2.8 34.8 1.5 8 4 11.7 10.5 17C78.8 142.6 91 153 100 153s21.2-10.4 27.7-15.8 9-9 10.5-17c2.6-14 2.8-34.8 2.8-34.8-1.2-28.4-19.6-44.1-41-44.1zm35.5 26.6c.2.7.5 1.5.7 2.2l.3 1.1c.1.4.2.8.3 1.1l.3 1.1.2 1.1.2 1.1.2 1.1.2 1.1.1 1.2.1 1.2c0 .4.1.8.1 1.2.1.8.1 1.6.2 2.3l.1 1.1V86c-.1 3.2-.2 6.4-.4 9.6-.3 6.4-.8 12.8-1.6 19.1l-.3 2.4-.4 2.3c-.3 1.5-.6 3-1 4.4s-.9 2.7-1.6 4c-.7 1.2-1.5 2.4-2.5 3.5s-2.1 2.2-3.3 3.2-2.4 2.1-3.6 3.1c-2.4 2.1-4.9 4.1-7.4 6-1.3 1-2.5 1.9-3.9 2.7-1.3.9-2.6 1.7-4 2.4s-2.8 1.4-4.2 1.9c-1.4.5-2.9.8-4.3.9-1.4 0-2.9-.2-4.4-.6-1.5-.4-2.9-1-4.4-1.7-1.4-.7-2.8-1.4-4.2-2.2-1.4-.8-2.7-1.7-4-2.6-1.3-.9-2.6-1.9-3.9-2.8-1.3-1-2.5-2-3.8-3-2.5-2.1-5-4-7.1-6.4-1-1.2-2-2.4-2.7-3.8-.7-1.4-1.3-2.8-1.7-4.3-.4-1.5-.7-3.1-.9-4.6l-.3-2.4-.2-2.4c-.6-6.4-.8-12.8-1-19.2l-.1-4.8-.1-4.8v-1.2l.1-1.1c0-.8.1-1.5.2-2.3 0-.4.1-.8.1-1.2l.2-1.2.2-1.2.2-1.1.2-1.1.2-1.1.2-1.1.3-1.1c.1-.4.2-.8.3-1.1l.3-1.1c.2-.7.5-1.5.7-2.2 1-2.9 2.3-5.8 3.9-8.4 1.6-2.7 3.5-5.2 5.7-7.4s4.7-4.2 7.5-5.8c1.4-.8 2.8-1.5 4.3-2.1.7-.3 1.5-.6 2.2-.8.4-.1.8-.2 1.1-.3l1.2-.3 1.2-.3.6-.1.6-.1L94 42c.4-.1.8-.1 1.2-.2a38.663 38.663 0 0 1 9.6 0c.4.1.8.1 1.2.2l1.2.2.6.1.6.1 1.2.3 1.2.3c.4.1.8.2 1.1.3.8.3 1.5.5 2.2.8 1.5.6 2.9 1.3 4.3 2.1 2.8 1.6 5.3 3.5 7.5 5.8 2.2 2.2 4.1 4.7 5.7 7.4 1.6 2.8 2.9 5.6 3.9 8.5z" fill="#c5796d" stroke-width="none" opacity="1" stroke="none"></path></g></g><g id="svga-group-mouth-single-move" transform="matrix(1,0,0,1,0,0)"><g id="svga-group-mouth-single"><path id="SvgjsPath7795" d="M86.9 128.1s2.9-.3 4.6-1 5.1-2.1 7.7-2.2 4.9.4 8 1.4 6.2 1.8 7.7 1.6c0 0-1.2 1.2-3.5 2.6s-5.8 2.9-9.8 3-7.3-.5-10.1-2c-3-1.5-4.4-2.7-4.6-3.4z" fill="#da7c87" stroke-width="none" opacity="1" transform="translate(0 3)" stroke="none"></path><path id="SvgjsPath7796" d="M86.4 128.4c4.6 2.6 9.9.3 14.8.5 4.4.1 10.4 1.9 14.4-.7.4-.2.1-.7-.3-.7-2.4.4-4.6.9-7 .8-2.4-.1-4.7-.5-7.1-.5-4.9-.1-9.8 1.8-14.6.1-.3-.2-.5.3-.2.5z" fill="#cb5f6c" stroke-width="none" opacity="1" transform="translate(0 3)" stroke="none"></path><path id="SvgjsPath7797" d="M92 130.8c4.7 1.9 11.1 2.3 15.6-.4.2-.1.1-.5-.1-.5-2.6.1-5.1.7-7.7.9-2.6.1-5.2-.1-7.7-.3-.2-.1-.2.2-.1.3z" fill="#e99ca5" stroke-width="none" opacity="1" transform="translate(0 3)" stroke="none"></path><path id="SvgjsPath7798" d="M98.1 126.3c2.1 0 4.1.5 6.2 1 .3.1.5-.3.2-.5-2-1-4.3-1.1-6.4-.8-.2 0-.2.2 0 .3z" fill="#e99ca5" stroke-width="none" opacity="1" transform="translate(0 3)" stroke="none"></path></g></g><g id="svga-group-eyes-left-move" transform="matrix(1,0,0,1,0,0)"><g id="svga-group-eyes-left"><g id="svga-group-eyesback-left"><path id="SvgjsPath7920" d="M90.9 101.3s-.3-2.5-1-3.8-3.7-4.4-7-5c-4.9-1-9.3 1.7-9.3 1.7s0 2.4 1.5 4.1c1.4 1.7 3.9 2.6 4.9 2.7s4.6.3 6.5 0c1.3-.2 2.8-.2 3.4 0 .5.2 1 .3 1 .3z" fill="#ffffff" stroke-width="none" opacity="1"></path></g><g id="svga-group-eyesiriswrapper-left" transform="matrix(1,0,0,1,0,0)"><g id="svga-group-eyesiriscontrol-left" transform="matrix(1,0,0,1,0,0)"><g id="svga-group-eyesiris-left"><path id="SvgjsPath8629" d="M82 91.5c2.7 0 4.9 2.2 4.9 4.9s-2.2 4.9-4.9 4.9-4.9-2.2-4.9-4.9 2.2-4.9 4.9-4.9z" fill="#400d09" stroke-width="none" opacity="1" stroke="none"></path><path id="SvgjsPath8630" d="M82 93.8c1.4 0 2.6 1.2 2.6 2.6S83.4 99 82 99s-2.6-1.2-2.6-2.6 1.2-2.6 2.6-2.6z" fill="#000000" stroke-width="none" opacity="1"></path><path id="SvgjsPath8631" d="m81.3 94.3-.5-.5c-.2-.2-.4-.3-.7-.3s-.5.1-.7.3c-.2.2-.3.4-.3.7s.1.5.3.7l.5.5c.2.2.4.3.7.3.2 0 .5-.1.7-.3.4-.5.4-1 0-1.4zm2.5 4.4c.8 0 .8-1.3 0-1.3s-.9 1.3 0 1.3z" fill="#ffffff" stroke-width="none" opacity="1"></path></g></g></g><g id="svga-group-eyesfront-left"><path id="SvgjsPath7928" d="M70.73 98.03c0 6.9 4.93 12.5 11.02 12.5s11.02-5.6 11.02-12.5-4.93-12.5-11.02-12.5-11.02 5.59-11.02 12.5zm2.88-3.78s4.42-2.71 9.34-1.75c3.29.64 6.2 3.74 6.95 5.03.75 1.28 1.03 3.82 1.03 3.82s-.53-.14-1.11-.32c-.57-.18-2.05-.19-3.39.04-1.89.32-5.46.18-6.45.04-1-.14-3.49-1.07-4.92-2.75-1.41-1.69-1.45-4.11-1.45-4.11z" fill="#f3d4cf" stroke-width="none" opacity="1" stroke="none"></path><path id="SvgjsPath7929" d="M73.27 94.64c-.1.42-.12.84-.06 1.25-.57-.03-1.21.05-1.59.44-.14.14.01.33.18.3.3-.05.58-.2.88-.27.21-.05.42-.06.63-.05.06.21.13.42.22.63-.18.06-.35.14-.5.21-.38.17-.75.42-.99.76-.11.15.09.28.22.22.35-.16.68-.38 1.03-.55.15-.07.32-.12.49-.18.16.28.35.54.56.8-.41.24-.78.58-.9 1.03-.03.1.09.21.19.15.36-.24.65-.57.96-.88 1.11 1.22 2.67 2.16 3.92 2.57 1.88.62 3.93.72 5.89.62 1.85-.09 4.72-1.14 6.43-.21.07.04.13.02.17-.02l.03-.03c.01-.02.02-.04.02-.06 0-.01.01-.01.01-.03-.1-4.06-2.64-7.49-6.4-8.97-2.08-.82-4.37-1.02-6.58-.69-2.59.39-4.87 1.66-7.54 1.44-.23-.02-.34.3-.18.44.9.88 1.89 1.13 2.91 1.08zm.67-.07c1.99-.32 4.11-1.54 6.09-1.68 5.13-.36 10.05 3 10.7 8.24-2.39-.82-5.13-.1-7.59-.15-2.01-.04-4.14-.32-5.91-1.34-2.21-1.28-2.61-2.93-3.29-5.07z" fill="#551919" stroke-width="none" opacity="1" stroke="none"></path></g></g></g><g id="svga-group-eyes-right-move" transform="matrix(1,0,0,1,0,0)"><g id="svga-group-eyes-right"><g id="svga-group-eyesback-right"><path id="SvgjsPath7921" d="M109.1 101.3s.3-2.5 1-3.8 3.7-4.4 7-5c4.9-1 9.3 1.7 9.3 1.7s0 2.4-1.5 4.1c-1.4 1.7-3.9 2.6-4.9 2.7s-4.6.3-6.5 0c-1.3-.2-2.8-.2-3.4 0-.5.2-1 .3-1 .3z" fill="#ffffff" stroke-width="none" opacity="1"></path></g><g id="svga-group-eyesiriswrapper-right" transform="matrix(1,0,0,1,0,0)"><g id="svga-group-eyesiriscontrol-right" transform="matrix(1,0,0,1,0,0)"><g id="svga-group-eyesiris-right"><path id="SvgjsPath8632" d="M118 91.5c2.7 0 4.9 2.2 4.9 4.9s-2.2 4.9-4.9 4.9-4.9-2.2-4.9-4.9 2.2-4.9 4.9-4.9z" fill="#400d09" stroke-width="none" opacity="1" stroke="none"></path><path id="SvgjsPath8633" d="M118 93.8c1.4 0 2.6 1.2 2.6 2.6S119.4 99 118 99s-2.6-1.2-2.6-2.6 1.2-2.6 2.6-2.6z" fill="#000000" stroke-width="none" opacity="1"></path><path id="SvgjsPath8634" d="m117.4 94.3-.5-.5c-.2-.2-.4-.3-.7-.3s-.5.1-.7.3c-.2.2-.3.4-.3.7s.1.5.3.7l.5.5c.2.2.4.3.7.3.2 0 .5-.1.7-.3.3-.5.4-1 0-1.4zm2.4 4.4c.8 0 .8-1.3 0-1.3s-.8 1.3 0 1.3z" fill="#ffffff" stroke-width="none" opacity="1"></path></g></g></g><g id="svga-group-eyesfront-right"><path id="SvgjsPath7930" d="M118.26 85.53c-6.08 0-11.02 5.6-11.02 12.5s4.93 12.5 11.02 12.5 11.02-5.6 11.02-12.5-4.94-12.5-11.02-12.5zm6.67 12.82c-1.43 1.68-3.92 2.6-4.92 2.75-1 .14-4.56.29-6.45-.04-1.34-.23-2.82-.21-3.39-.04-.57.18-1.11.32-1.11.32s.29-2.53 1.03-3.82c.75-1.28 3.66-4.38 6.95-5.03 4.92-.96 9.34 1.75 9.34 1.75s-.03 2.43-1.45 4.11z" fill="#f3d4cf" stroke-width="none" opacity="1" stroke="none"></path><path id="SvgjsPath7933" d="M129.64 93.58c.15-.15.04-.46-.18-.44-2.68.22-4.96-1.05-7.54-1.44-2.21-.33-4.49-.13-6.58.69-3.76 1.48-6.31 4.91-6.4 8.97 0 .01.01.02.01.03 0 .02.01.04.02.06l.03.03c.04.04.1.06.17.02 1.71-.93 4.58.11 6.43.21 1.96.1 4.02-.01 5.89-.62 1.25-.41 2.81-1.35 3.92-2.57.31.31.6.64.96.88.1.06.22-.04.19-.15-.12-.45-.5-.79-.9-1.03.21-.26.4-.52.56-.8.17.06.34.11.49.18.35.17.68.39 1.03.55.13.06.33-.07.22-.22-.25-.34-.61-.59-.99-.76-.15-.07-.32-.15-.5-.21.09-.21.17-.42.22-.63.21 0 .42.01.63.05.3.07.58.21.88.27.17.03.31-.16.18-.3-.38-.39-1.02-.48-1.59-.44.06-.41.04-.83-.06-1.25 1.02.03 2.01-.22 2.91-1.08zm-6.87 6.06c-1.77 1.03-3.9 1.3-5.91 1.34-2.46.05-5.21-.67-7.59.15.65-5.24 5.56-8.6 10.7-8.24 1.98.14 4.1 1.36 6.09 1.68-.68 2.14-1.08 3.79-3.29 5.07z" fill="#551919" stroke-width="none" opacity="1" stroke="none"></path></g></g></g><g id="svga-group-facehighlight-single"></g><g id="svga-group-eyebrows-left-move" transform="matrix(1,0,0,1,0,0)"><g id="svga-group-eyebrows-left-rotate" transform="matrix(0.9999999999999997,1.7453292699975975e-9,-1.7453292699975975e-9,0.9999999999999997,1.5003290343429398e-7,-1.4026710459802416e-7)"><g id="svga-group-eyebrows-left" transform="matrix(0.8999997000000001,0,0,0.8999997000000001,8.036739045447533,8.596276322809217)"><path id="SvgjsPath9560" d="M68.8 86s.1 0 0 0c.1-.1.1-.1.1-.2.3-.6.9-1 1.4-1.3.6-.4 1.3-.9 1.9-1.3h.1c1.5-1.1 4-1.3 6-.8 1.9.2 3.8.8 5 1.3.1 0 .2.1.4.1 1.6.3 3.3.6 4.8 1.2 1.5.3 3 .5 4.4 1h.1c.1-.1.4 0 .4.2.1.2.1.4 0 .7.2 0 .3.1.3.3-.1.5-.3.9-.6 1.3v.1c-.3.8-.9 1.1-1.8 1-.1 0-.2 0-.4-.1-.1.1-.2.1-.3.1-1.6-.1-3.2-.8-4.6-1.4-.9-.4-1.9-.8-2.8-1.3-1.4-.2-2.8-.6-4.2-.9-1.3-.3-2.8-.3-4-.8-.4.1-.9.1-1.3.2-.3.1-.6.2-1 .2-1 .3-2.2.8-3.2.9h-.1c-.1 0-.1.1-.2.1-.2.2-.4.4-.7.5-.1 0-.3-.1-.3-.2 0-.5.3-.7.6-.9z" fill="#543c32" stroke-width="none" opacity="1"></path><path id="SvgjsPath9561" d="M89.9 85.4c1.3.8 1.5 2.8 1.3 4.2 0 .3-.5.3-.6 0-.2-.7-.2-1.4-.3-2.1-.2-.6-.4-1.1-.7-1.7-.1-.3.1-.6.3-.4zm-3.2-.9c2.1.4 3.4 2.9 3.6 4.8 0 .2-.3.2-.3.1-.2-1-.6-1.9-1.2-2.7-.6-.8-1.4-1.3-2.2-2-.1-.1 0-.3.1-.2zM81 83.1c.9.2 1.9 1 2.6 1.7.7.7 1.3 1.5 1.5 2.4 0 .2-.2.3-.3.2-.5-.8-.9-1.6-1.7-2.2-.7-.6-1.6-1-2.2-1.8-.1-.2-.1-.3.1-.3zM76.3 82c2.3 0 4.7 2.1 5.4 4.2.1.2-.2.3-.3.1-.6-.9-1.2-1.8-2.1-2.5-.9-.7-1.9-1-3-1.4-.3-.1-.3-.4 0-.4zm-5.6 2.4c2.1-2.7 6.2-1.8 7.9.8.1.2-.2.4-.3.2-1-.9-2.1-1.9-3.5-2-1.5-.2-2.7.8-3.9 1.3-.3.1-.3-.2-.2-.3z" fill="#634e45" stroke-width="none" opacity="1"></path><path id="SvgjsPath9562" d="M92.1 90.3c1.6-.4 2-2.2 2-3.7 0-.3-.4-.3-.5-.1-.2.6-.4 1.3-.7 1.8-.3.5-.7.8-1.1 1 .4-1.2.2-2.6-.6-3.7.6.1 1.1.3 1.7.4.2 0 .3-.2.1-.3-2.7-1-5.6-1.6-8.3-2.4-2.4-.7-4.9-1.4-7.3-1.7-4.6-.6-7.6 2.4-10.3 5.7-.1.1-.2.2-.3.2-.4.3 0 .9.4.6 2.5-1.5 5-2.4 7.9-2.4 3.1.1 6.2 1.1 9.2 2.1 1.6.6 3.1 1.2 4.6 1.8 1 .6 2.1 1 3.2.7zm-20-6.8c1-.7 2.1-1 3.1-1.1.8.4 1.6.8 2.3 1.4.5.5.9 1.1 1.3 1.6-.1 0-.2-.1-.4-.1-3.4-.7-6.6-.4-9.5 1 1-1 2-2 3.2-2.8zm19.3 6c-.5 0-1.1-.1-1.7-.3-1.2-.4-2.4-1-3.6-1.5-.2-.1-.4-.1-.6-.2 0-.9-.3-1.8-.9-2.4-.1-.1-.3 0-.2.2.3.7.7 1.4.9 2.1-.8-.3-1.5-.6-2.3-.8-.7-1.5-2.1-3.1-3.6-3.8-.2-.1-.3.2-.2.3.6.6 1.3 1 1.9 1.7.5.5.9 1.1 1.3 1.7-1-.3-1.9-.6-2.9-.8-.2-.8-.9-1.6-1.5-2.1-.4-.4-1-.8-1.5-1.1.9 0 1.9.1 2.8.3 3.8.8 7.6 1.9 11.4 2.8.8 1.2 1 2.5.7 3.9z" fill="#452c22" stroke-width="none" opacity="1"></path></g></g></g><g id="svga-group-eyebrows-right-move" transform="matrix(1,0,0,1,0,0)"><g id="svga-group-eyebrows-right-rotate" transform="matrix(1,1.7453291312197194e-9,-1.7453291312197194e-9,1,1.829597096048019e-7,2.892065253945475e-7)"><g id="svga-group-eyebrows-right" transform="matrix(0.8999997000000001,0,0,0.8999997000000001,11.958318727021407,8.612983221074288)"><path id="SvgjsPath9563" d="M131.2 86s-.1 0 0 0c-.1-.1-.1-.1-.1-.2-.3-.6-.9-1-1.4-1.3-.6-.4-1.3-.9-1.9-1.3h-.1c-1.5-1.1-4-1.3-6-.8-1.9.2-3.8.8-5 1.3-.1 0-.2.1-.4.1-1.6.3-3.3.6-4.8 1.2-1.5.3-3 .5-4.4 1h-.1c-.1-.1-.4 0-.4.2-.1.2-.1.4 0 .7-.2 0-.3.1-.3.3.1.5.3.9.6 1.3v.1c.3.8.9 1.1 1.8 1 .1 0 .2 0 .4-.1.1.1.2.1.3.1 1.6-.1 3.2-.8 4.6-1.4.9-.4 1.9-.8 2.8-1.3 1.4-.2 2.8-.6 4.2-.9 1.3-.3 2.8-.3 4-.8.4.1.9.1 1.3.2.3.1.6.2 1 .2 1 .3 2.2.8 3.2.9h.1c.1 0 .1.1.2.1.2.2.4.4.7.5.1 0 .3-.1.3-.2 0-.5-.3-.7-.6-.9z" fill="#543c32" stroke-width="none" opacity="1"></path><path id="SvgjsPath9564" d="M110.1 85.4c-1.3.8-1.5 2.8-1.3 4.2 0 .3.5.3.6 0 .2-.7.2-1.4.3-2.1.2-.6.4-1.1.7-1.7.1-.3-.1-.6-.3-.4zm3.2-.9c-2.1.4-3.4 2.9-3.6 4.8 0 .2.3.2.3.1.2-1 .6-1.9 1.2-2.7.6-.8 1.4-1.3 2.2-2 .1-.1 0-.3-.1-.2zm5.7-1.4c-.9.2-1.9 1-2.6 1.7-.7.7-1.3 1.5-1.5 2.4 0 .2.2.3.3.2.5-.8.9-1.6 1.7-2.2.7-.6 1.6-1 2.2-1.8.1-.2.1-.3-.1-.3zm4.7-1.1c-2.3 0-4.7 2.1-5.4 4.2-.1.2.2.3.3.1.6-.9 1.2-1.8 2.1-2.5.9-.7 1.9-1 3-1.4.3-.1.3-.4 0-.4zm5.6 2.4c-2.1-2.7-6.2-1.8-7.9.8-.1.2.2.4.3.2 1-.9 2.1-1.9 3.5-2 1.5-.2 2.7.8 4 1.3.2.1.2-.2.1-.3z" fill="#634e45" stroke-width="none" opacity="1"></path><path id="SvgjsPath9565" d="M111.1 89.8c1.5-.6 3.1-1.2 4.6-1.8 2.9-1 6.1-2.1 9.2-2.1 2.9-.1 5.5.9 7.9 2.4.4.2.8-.4.4-.6-.1-.1-.2-.2-.4-.2-2.7-3.3-5.7-6.2-10.3-5.7-2.5.3-4.9 1.1-7.3 1.7-2.8.8-5.6 1.4-8.3 2.4-.2.1-.1.3.1.3.6-.1 1.1-.2 1.7-.4-.8 1-1 2.5-.6 3.7-.4-.1-.8-.4-1.1-1-.3-.6-.4-1.2-.7-1.8-.1-.2-.5-.2-.5.1.1 1.4.5 3.2 2 3.7 1.2.1 2.3-.3 3.3-.7zm19.9-3.5c-3-1.4-6.2-1.7-9.5-1-.1 0-.2.1-.4.1.4-.5.8-1.1 1.3-1.6.7-.6 1.5-.9 2.3-1.4 1.1.1 2.1.5 3.1 1.1 1.3.8 2.3 1.8 3.2 2.8zm-21.6-.7c3.8-.9 7.6-2 11.4-2.8 1-.2 1.9-.3 2.8-.3-.6.3-1.1.7-1.5 1.1-.6.5-1.3 1.3-1.5 2.1-1 .2-2 .5-2.9.8.4-.6.8-1.2 1.3-1.7.6-.6 1.3-1.1 1.9-1.7.1-.1 0-.3-.2-.3-1.5.6-2.9 2.2-3.6 3.8-.8.2-1.6.5-2.3.8.2-.7.5-1.4.9-2.1.1-.2-.1-.3-.2-.2-.6.6-.9 1.6-.9 2.4-.2.1-.4.1-.6.2-1.2.5-2.4 1.1-3.6 1.5-.6.2-1.2.4-1.7.3-.4-1.4-.2-2.7.7-3.9z" fill="#452c22" stroke-width="none" opacity="1"></path></g></g></g><g id="svga-group-nose-single-move" transform="matrix(1,0,0,1,0,1)"><g id="svga-group-nose-single" transform="matrix(1.0500001,0,0,1.0500001,-4.994840311926282,-5.4342439617279155)"><path id="SvgjsPath9632" d="M104.93 107.57c-.14-.18-.45.05-.32.25.84 1.29 1.76 2.56 2.54 3.89.53.9 1.07 2.03.7 3.12-.61 1.79-2.18 1.68-3.45 1 .48-.61.75-1.33.69-2.12-.02-.19-.29-.37-.44-.18-1.26 1.59-2.06 3.25-4.41 3.34-2.48.1-4.08-1.91-4.73-4.07-.06-.19-.32-.14-.33.04-.07.99.25 1.95.79 2.76-.36.07-.73.14-1.09.16-1.15.07-1.34-.02-2.11-.98-.8-1.01-.81-1.27-.36-2.39.21-.53.52-.98.82-1.45.97-1.52 1.84-3.06 2.48-4.75 1.29-3.37 1.85-7.09 1.22-10.66-.03-.15-.26-.11-.27.04-.01 2.89-.19 5.74-1.04 8.52-.88 2.88-2.54 5.04-3.92 7.64-.72 1.35-1.02 3.12.21 4.28 1.22 1.15 3.1.78 4.52.24.85.92 2.02 1.56 3.26 1.67 1.4.12 3.23-.55 4.36-1.7 1.31 1.45 3.82.78 4.47-1.08 1.01-2.82-2.06-5.64-3.59-7.57z" fill="#c5796d" stroke-width="none" opacity="1" transform="translate(0 2)" stroke="none"></path><path id="SvgjsPath9633" d="M102 110.13c-.8-.75-2.07-.97-2.97-.27-.33.25-.52.57-.61.9-.16.05-.3.14-.44.27-.68.67-.39 1.71.19 2.34.5.53 1.31.78 2.02.75.88-.05 1.67-.46 2.16-1.2.57-.86.4-2.09-.35-2.79z" fill="#fbe5e2" stroke-width="none" opacity="1" transform="translate(0 2)" stroke="none"></path></g></g><g id="svga-group-hair-front"><path id="SvgjsPath8027" d="M75.1 60.2s9.5 11.9 24.4 14.5c14.9 2.6 28.5 2 33.7 9.5s4.4 23.6 4.4 23.6 5.9-14.5 6.3-20c.4-5.6 1-26.1-11.9-38.6s-43-21-59-2c0 0-11.3.4-16.8 18.8s5.5 42.8 5.5 42.8S60 92 65.2 83.2c6.7-11.5 8.7-14.3 9.9-23z" fill="#543c32" stroke-width="none" opacity="1" stroke="none"></path><path id="SvgjsPath8028" d="M137.2 84.7c-3.8-5.4-10.5-7.4-16.6-8.9-17.5-4.1-40.4-3.7-46.8-24.4-.1-.4-.7-.2-.6.2 2.4 13.9 17.5 19.9 29.6 22.4 14.5 3 41.7 5 35.7 26.9-.1.3.4.4.5.1 2.1-5.4 1.6-11.4-1.8-16.3zm-14-27.9c-6.1-3.4-12.9-5.5-19.9-6.2-9.4-1-18.8 1-27.6-3.5-.2-.1-.5.2-.2.4 4.9 2.8 10.4 3.3 16 3.4 7.8.1 15.2.2 22.6 2.7 13.9 4.7 26.3 15 27.2 30-3.8-10.2-14.3-14.9-24.2-17.8-13.7-4-31.1-4.4-41.7-15.1-.1-.1-.3 0-.2.2 7.3 9.2 20.1 10.2 30.8 12.8 13.3 3.2 29.4 6.7 35.1 20.7 0 .1.1.1.2.1 0 .9 0 1.9-.1 2.9 0 .3.4.3.5.1 3-13.4-7.8-24.8-18.5-30.7zM135 58c-13.2-18-38.6-22.3-58.2-13.4-.2.1 0 .5.2.4 10.4-4.8 22.2-6 33.3-2.8 9.9 2.8 17.5 8.7 24.4 16.1.2 0 .4-.1.3-.3zm-62.3-3.8c0-.2-.4-.3-.4 0 0 5.5-.4 10.8-2.4 15.9-1.6 4.2-4 7.9-6.1 11.8-3.2 6.1-5 12.3-4.1 19.2 0 .2.4.2.4-.1-.3-9.9 3.5-16.7 8-25.2 3.7-6.7 5.6-14 4.6-21.6zm-3.1-3.4C56.8 60 55.8 77.9 58.1 92.1c0 .2.3.1.3 0-1.5-15.3-.4-30 11.4-41 .1-.2-.1-.4-.2-.3zm-.1 6.7c-1.9 5.7-3.8 11.2-6.1 16.8-.1.2.2.3.3.1 2.7-5.2 5-11 6.1-16.8 0-.2-.3-.3-.3-.1z" fill="#452c22" stroke-width="none" opacity="1" stroke="none"></path><path id="SvgjsPath8029" d="M121.5 73.9c-6.8-3.4-14.7-2.8-21.9-5.1-8.6-2.7-15.5-7.6-22.2-13.4-.2-.1-.4.1-.2.2 4.9 5.6 11.6 9.8 18.5 12.6 8.3 3.3 17.6 2.6 25.8 6 0 0 .1-.2 0-.3zm9.7.4c-10.4-8.1-25.3-7.2-37.7-9.8-.2 0-.2.2-.1.2 12.6 4.1 25.8 2.6 37.6 9.8.2.1.4-.1.2-.2zm-22.4-16c-10.8-.3-20-2.9-29.6-7.8-.2-.1-.4.2-.2.3 8.6 5.8 19.4 8.6 29.8 8 .4 0 .4-.5 0-.5zm15.5 5.4c-6-5.6-14-7.2-21.9-8.3-.1 0-.2.2 0 .2 7.7 1.8 15.2 3.3 21.6 8.3.3.2.5 0 .3-.2zm-4-10.8c-9.8-5.9-22.9-6.6-34.1-7.1-.2 0-.3.3-.1.4 11.6 1.9 23.1 2 33.9 7.1.3 0 .5-.3.3-.4zm-3.7-4c-6.9-4.2-15.1-6.3-23.2-5.8-.3 0-.3.4 0 .5 8.2.4 15.5 2.2 22.9 5.8.3 0 .5-.4.3-.5zm-48.9 7c-4.2 4.5-6.9 10.4-7.3 16.6 0 .2.3.2.3 0 1-6.2 3.2-11.5 7.2-16.4.1-.1-.1-.3-.2-.2zm2.3-2c-1.2 3.1-2.7 6.2-4.3 9.1-.1.1.1.2.2.1 2.1-2.8 3.5-5.8 4.4-9.2-.1-.1-.3-.1-.3 0zm.2 5.7c-1.2 5-2.5 9.6-5 14.2-1.8 3.4-3.6 6.5-4.4 10.3 0 .1.2.2.2.1 1.4-4.7 4.1-8.5 6.2-12.9 1.8-3.7 2.6-7.5 3.3-11.5 0-.3-.3-.4-.3-.2z" fill="#634e45" stroke-width="none" opacity="1" stroke="none"></path></g><g id="svga-group-glasses-single-move" transform="matrix(1,0,0,1,0,-2)"><g id="svga-group-glasses-single" transform="matrix(1.0000001,0,0,1.0000001,-0.000009997777951298303,-0.000009954891595498339)"><path id="SvgjsPath10619" d="M65.9 91.4c-1 .9-.6 5.1.1 8.8s1.3 6.1 3.7 7.1 8.8 1.9 15.5 1.2c6.7-.7 7.1-2.5 7.9-3.8.9-1.3 3.4-8.5 3.5-10.3S93.8 92 92 91.7s-11.3-1.1-16.2-1.4c-4.8-.4-8.6-.1-9.9 1.1z" fill="url(#SvgjsLinearGradient10620)" opacity="1"></path><path id="SvgjsPath10624" d="M134.1 91.4c1 .9.6 5.1-.1 8.8s-1.3 6.1-3.6 7.1c-2.4 1-8.8 1.9-15.5 1.2-6.7-.7-7.1-2.5-7.9-3.8-.9-1.3-3.4-8.5-3.5-10.3s2.9-2.5 4.7-2.8 11.3-1.1 16.2-1.4c4.6-.3 8.4 0 9.7 1.2z" fill="url(#SvgjsLinearGradient10625)" opacity="1"></path><path id="SvgjsPath10629" d="M136.6 90.5c-.6-.5-3.6-.7-7.3-.9-3.6-.2-14.3.1-20.6 1.1-3.6.6-6.6 1.3-7.9 1.3h-1.4c-1.4 0-4.3-.7-7.9-1.3-6.3-1.1-17.1-1.3-20.6-1.1-3.7.2-6.7.3-7.3.9-.7.5 0 3.8.3 4.5s.6.6.9 1 .8 5.7 1.6 8.3c.8 2.7 2 4.3 9.2 4.9 7.2.6 13.6-.3 15.9-1.4 2.4-1.1 4.1-5.8 4.6-7.3.4-1.5 1-3.1 1.4-3.9.4-.8 2-1.3 2-1.3h1.4s1.6.6 2 1.3c.4.8.9 2.4 1.4 3.9.4 1.5 2.2 6.2 4.6 7.3 2.4 1.1 8.7 2 15.9 1.4s8.4-2.3 9.2-4.9 1.3-7.9 1.6-8.3c.3-.4.6-.3.9-1 .1-.7.7-4 .1-4.5zm-41.1 6c-.9 4.1-2.9 8.7-4.3 9.8-2.1 1.7-10.8 2.3-15.7 1.7-4.9-.6-7.2-1.3-8.2-4.6s-1.4-8.6-1.2-10.1 1.7-2.4 5.5-2.4 7.4 0 12.2.3 8.4 1 10.2 1.9c1.8.8 1.8 2 1.5 3.4zm37.2 6.9c-1 3.4-3.3 4.1-8.2 4.6-4.9.6-13.6 0-15.7-1.7-1.4-1.1-3.4-5.7-4.3-9.8-.3-1.4-.3-2.6 1.5-3.4 1.8-.8 5.4-1.6 10.2-1.9 4.8-.3 8.4-.3 12.2-.3 3.8 0 5.2.9 5.5 2.4.2 1.6-.2 6.8-1.2 10.1z" fill="#2c2c2c" stroke-width="none" opacity="1" stroke="none"></path><path id="SvgjsPath10630" d="M136.6 90.5c-.6-.3-1.3-.4-2-.5-.7-.1-1.4-.1-2-.2-1.4-.1-2.7-.2-4.1-.2-2.7-.1-5.5 0-8.2.2-2.7.1-5.4.3-8.2.6-2.7.3-5.4.8-8.1 1.4-1.3.2-2.7.6-4.1.5-1.4.1-2.8-.2-4.1-.5-2.7-.5-5.3-1.1-8.1-1.4-5.4-.6-10.9-.8-16.3-.8-1.4 0-2.7.1-4.1.2-.7 0-1.4.1-2 .2-.7.1-1.4.1-1.9.4-.2.2-.2.6-.3.9v1c.1.7.2 1.3.3 2 .1.3.2.7.3.9.2.2.6.3.7.7.2.7.3 1.3.4 2 .2 1.3.4 2.7.7 4 .3 1.3.6 2.7 1.2 3.8.7 1.2 1.9 1.9 3.2 2.3 1.3.4 2.6.6 4 .8 2.7.3 5.4.3 8.2.2 2.7-.1 5.4-.4 8-1.2.7-.2 1.2-.4 1.7-.9.5-.4.9-.9 1.3-1.5.8-1.1 1.3-2.3 1.8-3.6.5-1.2.8-2.6 1.3-3.9.1-.3.2-.7.4-1 .1-.3.2-.7.5-1 .6-.5 1.2-.8 1.9-1.1h1.4c.6.2 1.1.5 1.7.9.2.2.5.5.6.8.1.3.2.6.3.8.4 1.1.8 2.3 1.1 3.4.4 1.1.8 2.2 1.4 3.2.6 1 1.2 2 2.1 2.8.8.7 2.1 1 3.2 1.3 1.2.2 2.3.4 3.5.6 2.4.3 4.7.4 7.1.3 2.4-.1 4.8-.2 7.1-.7 1.1-.3 2.3-.7 3.2-1.4.9-.7 1.4-1.9 1.8-3 .6-2.3.9-4.7 1.3-7 .1-.3.1-.6.2-.9.1-.3.4-.5.6-.7.5-.4.5-1 .7-1.6l.3-1.8c.2-.2.3-.9 0-1.3zm0-.1c.2.2.2.6.3.8v.9c0 .6-.1 1.2-.2 1.8-.1.3-.1.6-.2.9-.1.3-.2.6-.5.8-.2.2-.5.3-.6.6-.1.3-.1.6-.2.9-.4 2.3-.6 4.7-1.3 7.1-.3 1.1-.8 2.3-1.8 3.1-1 .8-2.1 1.2-3.3 1.5-2.3.6-4.8.7-7.1.8-2.4.1-4.8 0-7.2-.2-1.2-.1-2.4-.3-3.6-.6-.6-.1-1.2-.3-1.8-.5-.6-.2-1.2-.5-1.6-.9-.9-.8-1.6-1.9-2.2-2.9-.6-1.1-1-2.2-1.4-3.3-.4-1.2-.7-2.3-1.1-3.4-.1-.3-.2-.6-.3-.8-.1-.3-.2-.4-.5-.6-.4-.3-1-.6-1.5-.8h.1-1.4.1c-.6.2-1.2.5-1.7.9-.2.2-.3.5-.4.8l-.3.9c-.5 1.3-.8 2.6-1.3 3.9-.5 1.3-1.1 2.5-1.9 3.7-.4.6-.8 1.1-1.4 1.6-.5.5-1.2.8-1.9 1-2.7.8-5.4 1-8.1 1.2-2.7.1-5.5 0-8.2-.3-1.4-.2-2.7-.4-4-.8-1.3-.4-2.6-1.2-3.3-2.4-.7-1.2-1-2.6-1.2-3.9-.3-1.3-.4-2.7-.7-4.1-.1-.7-.2-1.4-.4-2-.1-.3-.5-.4-.7-.7-.2-.3-.3-.7-.4-1-.2-.7-.3-1.3-.3-2 0-.3-.1-.7 0-1 0-.3 0-.7.3-1 .6-.4 1.3-.4 2-.5.7-.1 1.4-.1 2-.2 1.4-.1 2.7-.2 4.1-.2 5.5-.1 10.9.1 16.4.6 2.7.3 5.4.8 8.1 1.3 2.7.6 5.3.6 8 0 2.7-.5 5.4-1 8.1-1.3 2.7-.3 5.4-.4 8.2-.5 2.7-.1 5.5-.2 8.2-.1 1.4.1 2.7.1 4.1.2.7.1 1.4.1 2 .2.7.2 1.4.2 2 .5zm-41.1 6.1c-.3 1.6-.8 3.2-1.4 4.8-.6 1.6-1.2 3.1-2.2 4.5-.5.7-1.4 1.2-2.2 1.4-.8.3-1.6.5-2.5.6-1.7.3-3.3.4-5 .5-3.4.1-6.8-.1-10-.8-1.6-.3-3.3-1-4.3-2.5-.5-.7-.7-1.6-.9-2.4-.2-.8-.4-1.6-.5-2.5-.3-1.7-.5-3.3-.6-5 0-.8-.1-1.7.2-2.6.4-.9 1.2-1.4 2.1-1.6 1.7-.5 3.4-.4 5.1-.4l5 .1c1.7.1 3.4.1 5 .2 1.7.1 3.4.3 5 .5 1.7.3 3.3.6 4.9 1.2.8.3 1.6.6 2.1 1.4.5.9.4 1.8.2 2.6zm-.1 0c.2-.8.3-1.7-.2-2.4s-1.3-1-2.1-1.3c-1.6-.5-3.2-.8-4.9-1-3.3-.5-6.7-.4-10-.5l-5-.1c-1.7-.1-3.4-.1-4.9.3-.8.2-1.5.7-1.8 1.3-.3.7-.2 1.6-.2 2.4 0 1.7.2 3.3.5 5 .1.8.3 1.7.5 2.5s.4 1.6.9 2.3c.4.7 1.1 1.3 1.8 1.7.7.4 1.5.6 2.3.8 3.3.7 6.7.7 10 .5 1.7-.1 3.3-.3 5-.5.8-.1 1.6-.3 2.4-.6.8-.2 1.5-.6 2-1.2 1-1.3 1.7-2.8 2.3-4.4.6-1.5 1.1-3.1 1.4-4.8zm37.3 7c-.2.8-.6 1.6-1.1 2.2-.6.7-1.3 1.1-2.1 1.4-1.6.6-3.3.9-4.9 1.1-3.3.4-6.7.3-10.1-.1-1.7-.2-3.3-.5-4.9-1.2-.4-.2-.8-.4-1.1-.7-.3-.3-.6-.7-.8-1-.4-.7-.8-1.5-1.2-2.2-.7-1.5-1.2-3.1-1.7-4.7-.2-.8-.5-1.6-.6-2.5-.1-.4-.1-.9.1-1.3.1-.4.4-.8.8-1.1.7-.5 1.5-.8 2.3-1.1.8-.2 1.6-.4 2.5-.6 1.7-.3 3.3-.6 5-.7 3.4-.2 6.7-.2 10.1-.3l2.5-.1c.8 0 1.7 0 2.5.1.9.1 1.7.2 2.5.6.4.2.8.5 1 .8.3.4.4.8.5 1.2.1 1.7-.1 3.4-.3 5.1-.2 1.8-.5 3.4-1 5.1zm0-.1c.4-1.6.7-3.3.9-4.9.2-1.7.3-3.4.1-5-.1-.8-.6-1.5-1.4-1.8-.7-.3-1.6-.5-2.4-.5-1.6-.1-3.3 0-5 0l-5 .1c-1.7.1-3.4 0-5 .2-1.7.1-3.3.3-5 .6-.8.2-1.6.3-2.4.6-.8.2-1.6.5-2.2 1-.7.5-.9 1.3-.8 2.1.1.8.3 1.6.5 2.4.4 1.6 1 3.2 1.7 4.7.3.8.7 1.5 1.2 2.2.2.3.5.7.8 1 .3.3.7.5 1 .6 1.5.6 3.2.8 4.9 1 3.3.3 6.7.4 10 .2 1.7-.2 3.3-.3 4.9-.9.8-.3 1.5-.8 2.1-1.4.5-.6.8-1.4 1.1-2.2z" fill="#0d0d0d" stroke-width="none" opacity="1" stroke="none"></path></g></g></g></g></g><rect id="svga-credit-rect" width="200" height="15" x="0" y="185" fill="#ecf0f1" opacity="0.5" style="display: none;"></rect><text id="svga-credit-text" font-family="Avenir Next, Roboto, Helvetica, Arial, sans-serif" font-size="10px" text-anchor="start" font-weight="400" size="10px" anchor="start" weight="400" fill="#333333" x="33.40447998046875" y="182.60824704170227" style="display: none;"><tspan id="SvgjsTspan7789" dy="13" x="33.40447998046875">Created on AvatarMaker.com</tspan></text></g><defs id="SvgjsDefs7741"><linearGradient id="SvgjsLinearGradient9642" x1="82.14" y1="87.906" x2="82.14" y2="109.3074" gradientUnits="userSpaceOnUse" class="svga-on-canvas-glasses-gradient-single-0-null"><stop id="SvgjsStop9643" stop-opacity="1" stop-color="#9bc2cf" offset="0" ></stop><stop id="SvgjsStop9644" stop-opacity="0" stop-color="#6086c4" offset="1" ></stop></linearGradient><linearGradient id="SvgjsLinearGradient9646" x1="-17.86" y1="87.906" x2="-17.86" y2="109.3074" gradientTransform="matrix(-1 0 0 1 100 0)" gradientUnits="userSpaceOnUse" class="svga-on-canvas-glasses-gradient-single-1-null"><stop id="SvgjsStop9647" stop-opacity="1" stop-color="#9bc2cf" offset="0" ></stop><stop id="SvgjsStop9648" stop-opacity="0" stop-color="#6086c4" offset="1" ></stop></linearGradient><linearGradient id="SvgjsLinearGradient9790" x1="81.0335" y1="111.8772" x2="81.0335" y2="93.2499" gradientTransform="matrix(1 0 0 -1 0 202)" gradientUnits="userSpaceOnUse" class="svga-on-canvas-glasses-gradient-single-0-null"><stop id="SvgjsStop9791" stop-opacity="1" stop-color="#bfeaf2" offset="0" ></stop><stop id="SvgjsStop9792" stop-opacity="0.649" stop-color="#a1cae3" offset="0.351" ></stop><stop id="SvgjsStop9793" stop-opacity="0" stop-color="#6086c4" offset="1" ></stop></linearGradient><linearGradient id="SvgjsLinearGradient9795" x1="-1736.9666" y1="111.8772" x2="-1736.9666" y2="93.2499" gradientTransform="matrix(-1 0 0 -1 -1618 202)" gradientUnits="userSpaceOnUse" class="svga-on-canvas-glasses-gradient-single-1-null"><stop id="SvgjsStop9796" stop-opacity="1" stop-color="#bfeaf2" offset="0" ></stop><stop id="SvgjsStop9797" stop-opacity="0.649" stop-color="#a1cae3" offset="0.351" ></stop><stop id="SvgjsStop9798" stop-opacity="0" stop-color="#6086c4" offset="1" ></stop></linearGradient><linearGradient id="SvgjsLinearGradient9847" x1="81.9825" y1="87.8318" x2="81.9825" y2="111.9101" gradientUnits="userSpaceOnUse" class="svga-on-canvas-glasses-gradient-single-0-null"><stop id="SvgjsStop9848" stop-opacity="1" stop-color="#9ab4d3" offset="0" ></stop><stop id="SvgjsStop9849" stop-opacity="0.7593" stop-color="#93aed1" offset="0.2407" ></stop><stop id="SvgjsStop9850" stop-opacity="0.4009" stop-color="#7e9ecc" offset="0.5991" ></stop><stop id="SvgjsStop9851" stop-opacity="0" stop-color="#6086c4" offset="1" ></stop></linearGradient><linearGradient id="SvgjsLinearGradient9853" x1="-18.0175" y1="87.8318" x2="-18.0175" y2="111.9101" gradientTransform="matrix(-1 0 0 1 100 0)" gradientUnits="userSpaceOnUse" class="svga-on-canvas-glasses-gradient-single-1-null"><stop id="SvgjsStop9854" stop-opacity="1" stop-color="#9ab4d3" offset="0" ></stop><stop id="SvgjsStop9855" stop-opacity="0.7593" stop-color="#93aed1" offset="0.2407" ></stop><stop id="SvgjsStop9856" stop-opacity="0.4009" stop-color="#7e9ecc" offset="0.5991" ></stop><stop id="SvgjsStop9857" stop-opacity="0" stop-color="#6086c4" offset="1" ></stop></linearGradient><linearGradient id="SvgjsLinearGradient9911" x1="81.0729" y1="112.2763" x2="81.0729" y2="92.4328" gradientTransform="matrix(1 0 0 -1 0 202)" gradientUnits="userSpaceOnUse" class="svga-on-canvas-glasses-gradient-single-0-null"><stop id="SvgjsStop9912" stop-opacity="1" stop-color="#97a1ad" offset="0" ></stop><stop id="SvgjsStop9913" stop-opacity="0.6667" stop-color="#889ab3" offset="0.3333" ></stop><stop id="SvgjsStop9914" stop-opacity="3.130000e-02" stop-color="#6287c3" offset="0.9687" ></stop><stop id="SvgjsStop9915" stop-opacity="0" stop-color="#6086c4" offset="1" ></stop></linearGradient><linearGradient id="SvgjsLinearGradient9917" x1="-1736.927" y1="112.2763" x2="-1736.927" y2="92.4328" gradientTransform="matrix(-1 0 0 -1 -1618 202)" gradientUnits="userSpaceOnUse" class="svga-on-canvas-glasses-gradient-single-1-null"><stop id="SvgjsStop9918" stop-opacity="1" stop-color="#97a1ad" offset="0" ></stop><stop id="SvgjsStop9919" stop-opacity="0.6667" stop-color="#889ab3" offset="0.3333" ></stop><stop id="SvgjsStop9920" stop-opacity="3.130000e-02" stop-color="#6287c3" offset="0.9687" ></stop><stop id="SvgjsStop9921" stop-opacity="0" stop-color="#6086c4" offset="1" ></stop></linearGradient><linearGradient id="SvgjsLinearGradient9977" x1="81.0729" y1="112.2763" x2="81.0729" y2="92.4328" gradientTransform="matrix(1 0 0 -1 0 202)" gradientUnits="userSpaceOnUse" class="svga-on-canvas-glasses-gradient-single-0-null"><stop id="SvgjsStop9978" stop-opacity="1" stop-color="#97a1ad" offset="0" ></stop><stop id="SvgjsStop9979" stop-opacity="0.6667" stop-color="#889ab3" offset="0.3333" ></stop><stop id="SvgjsStop9980" stop-opacity="3.130000e-02" stop-color="#6287c3" offset="0.9687" ></stop><stop id="SvgjsStop9981" stop-opacity="0" stop-color="#6086c4" offset="1" ></stop></linearGradient><linearGradient id="SvgjsLinearGradient9983" x1="-1736.927" y1="112.2763" x2="-1736.927" y2="92.4328" gradientTransform="matrix(-1 0 0 -1 -1618 202)" gradientUnits="userSpaceOnUse" class="svga-on-canvas-glasses-gradient-single-1-null"><stop id="SvgjsStop9984" stop-opacity="1" stop-color="#97a1ad" offset="0" ></stop><stop id="SvgjsStop9985" stop-opacity="0.6667" stop-color="#889ab3" offset="0.3333" ></stop><stop id="SvgjsStop9986" stop-opacity="3.130000e-02" stop-color="#6287c3" offset="0.9687" ></stop><stop id="SvgjsStop9987" stop-opacity="0" stop-color="#6086c4" offset="1" ></stop></linearGradient><linearGradient id="SvgjsLinearGradient10043" x1="118.8" y1="82.84" x2="118.8" y2="112.98" gradientUnits="userSpaceOnUse" class="svga-on-canvas-glasses-gradient-single-0-null"><stop id="SvgjsStop10044" stop-opacity="1" stop-color="#b4c0cf" offset="0" ></stop><stop id="SvgjsStop10045" stop-opacity="0.9374" stop-color="#abbace" offset="0.0626" ></stop><stop id="SvgjsStop10046" stop-opacity="0.679" stop-color="#8aa3ca" offset="0.321" ></stop><stop id="SvgjsStop10047" stop-opacity="0.4305" stop-color="#7393c6" offset="0.5695" ></stop><stop id="SvgjsStop10048" stop-opacity="0.1987" stop-color="#6589c5" offset="0.8013" ></stop><stop id="SvgjsStop10049" stop-opacity="0" stop-color="#6086c4" offset="1" ></stop></linearGradient><linearGradient id="SvgjsLinearGradient10051" x1="81.2" y1="82.84" x2="81.2" y2="112.98" gradientUnits="userSpaceOnUse" class="svga-on-canvas-glasses-gradient-single-1-null"><stop id="SvgjsStop10052" stop-opacity="1" stop-color="#b4c0cf" offset="0" ></stop><stop id="SvgjsStop10053" stop-opacity="0.9374" stop-color="#abbace" offset="0.0626" ></stop><stop id="SvgjsStop10054" stop-opacity="0.679" stop-color="#8aa3ca" offset="0.321" ></stop><stop id="SvgjsStop10055" stop-opacity="0.4305" stop-color="#7393c6" offset="0.5695" ></stop><stop id="SvgjsStop10056" stop-opacity="0.1987" stop-color="#6589c5" offset="0.8013" ></stop><stop id="SvgjsStop10057" stop-opacity="0" stop-color="#6086c4" offset="1" ></stop></linearGradient><linearGradient id="SvgjsLinearGradient10123" x1="80.965" y1="115.5409" x2="80.965" y2="91.2475" gradientTransform="matrix(1 0 0 -1 0 202)" gradientUnits="userSpaceOnUse" class="svga-on-canvas-glasses-gradient-single-0-null"><stop id="SvgjsStop10124" stop-opacity="1" stop-color="#899ba1" offset="0" ></stop><stop id="SvgjsStop10125" stop-opacity="0.6554" stop-color="#7490b3" offset="0.3446" ></stop><stop id="SvgjsStop10126" stop-opacity="0.2966" stop-color="#6589c0" offset="0.7034" ></stop><stop id="SvgjsStop10127" stop-opacity="0" stop-color="#6086c4" offset="1" ></stop></linearGradient><linearGradient id="SvgjsLinearGradient10129" x1="-1737.0349" y1="115.5409" x2="-1737.0349" y2="91.2475" gradientTransform="matrix(-1 0 0 -1 -1618 202)" gradientUnits="userSpaceOnUse" class="svga-on-canvas-glasses-gradient-single-1-null"><stop id="SvgjsStop10130" stop-opacity="1" stop-color="#899ba1" offset="0" ></stop><stop id="SvgjsStop10131" stop-opacity="0.6554" stop-color="#7490b3" offset="0.3446" ></stop><stop id="SvgjsStop10132" stop-opacity="0.2966" stop-color="#6589c0" offset="0.7034" ></stop><stop id="SvgjsStop10133" stop-opacity="0" stop-color="#6086c4" offset="1" ></stop></linearGradient><linearGradient id="SvgjsLinearGradient10187" x1="81.2869" y1="113.6762" x2="81.2869" y2="89.427" gradientTransform="matrix(1 0 0 -1 0 202)" gradientUnits="userSpaceOnUse" class="svga-on-canvas-glasses-gradient-single-0-null"><stop id="SvgjsStop10188" stop-opacity="1" stop-color="#3d2d1c" offset="0.0208" ></stop><stop id="SvgjsStop10189" stop-opacity="0.6291" stop-color="#402e1c" offset="0.3825" ></stop><stop id="SvgjsStop10190" stop-opacity="0.3897" stop-color="#48321d" offset="0.6159" ></stop><stop id="SvgjsStop10191" stop-opacity="0.1881" stop-color="#57381f" offset="0.8124" ></stop><stop id="SvgjsStop10192" stop-opacity="7.593334e-03" stop-color="#6c4221" offset="0.9884" ></stop><stop id="SvgjsStop10193" stop-opacity="0" stop-color="#6d4221" offset="0.9958" ></stop></linearGradient><linearGradient id="SvgjsLinearGradient10195" x1="-1736.4185" y1="113.6762" x2="-1736.4185" y2="89.427" gradientTransform="matrix(-1 0 0 -1 -1617.7053 202)" gradientUnits="userSpaceOnUse" class="svga-on-canvas-glasses-gradient-single-1-null"><stop id="SvgjsStop10196" stop-opacity="1" stop-color="#3d2d1c" offset="0.0208" ></stop><stop id="SvgjsStop10197" stop-opacity="0.6291" stop-color="#402e1c" offset="0.3825" ></stop><stop id="SvgjsStop10198" stop-opacity="0.3897" stop-color="#48321d" offset="0.6159" ></stop><stop id="SvgjsStop10199" stop-opacity="0.1881" stop-color="#57381f" offset="0.8124" ></stop><stop id="SvgjsStop10200" stop-opacity="7.593334e-03" stop-color="#6c4221" offset="0.9884" ></stop><stop id="SvgjsStop10201" stop-opacity="0" stop-color="#6d4221" offset="0.9958" ></stop></linearGradient><linearGradient id="SvgjsLinearGradient10269" x1="82.1605" y1="89.1997" x2="82.1605" y2="110.4876" gradientUnits="userSpaceOnUse" class="svga-on-canvas-glasses-gradient-single-0-null"><stop id="SvgjsStop10270" stop-opacity="1" stop-color="#3d2d1c" offset="0.0208" ></stop><stop id="SvgjsStop10271" stop-opacity="0.6291" stop-color="#402e1c" offset="0.3825" ></stop><stop id="SvgjsStop10272" stop-opacity="0.3897" stop-color="#48321d" offset="0.6159" ></stop><stop id="SvgjsStop10273" stop-opacity="0.1881" stop-color="#57381f" offset="0.8124" ></stop><stop id="SvgjsStop10274" stop-opacity="7.593334e-03" stop-color="#6c4221" offset="0.9884" ></stop><stop id="SvgjsStop10275" stop-opacity="0" stop-color="#6d4221" offset="0.9958" ></stop></linearGradient><linearGradient id="SvgjsLinearGradient10277" x1="-17.8395" y1="89.1997" x2="-17.8395" y2="110.4876" gradientTransform="matrix(-1 0 0 1 100 0)" gradientUnits="userSpaceOnUse" class="svga-on-canvas-glasses-gradient-single-1-null"><stop id="SvgjsStop10278" stop-opacity="1" stop-color="#3d2d1c" offset="0.0208" ></stop><stop id="SvgjsStop10279" stop-opacity="0.6291" stop-color="#402e1c" offset="0.3825" ></stop><stop id="SvgjsStop10280" stop-opacity="0.3897" stop-color="#48321d" offset="0.6159" ></stop><stop id="SvgjsStop10281" stop-opacity="0.1881" stop-color="#57381f" offset="0.8124" ></stop><stop id="SvgjsStop10282" stop-opacity="7.593334e-03" stop-color="#6c4221" offset="0.9884" ></stop><stop id="SvgjsStop10283" stop-opacity="0" stop-color="#6d4221" offset="0.9958" ></stop></linearGradient><linearGradient id="SvgjsLinearGradient10369" x1="80.31" y1="83.23" x2="80.31" y2="113.07" gradientUnits="userSpaceOnUse" class="svga-on-canvas-glasses-gradient-single-0-null"><stop id="SvgjsStop10370" stop-opacity="1" stop-color="#211810" offset="0" ></stop><stop id="SvgjsStop10371" stop-opacity="0.5248" stop-color="#231910" offset="0.4752" ></stop><stop id="SvgjsStop10372" stop-opacity="0.3536" stop-color="#2a1d12" offset="0.6464" ></stop><stop id="SvgjsStop10373" stop-opacity="0.2315" stop-color="#352315" offset="0.7685" ></stop><stop id="SvgjsStop10374" stop-opacity="0.1329" stop-color="#462d18" offset="0.8671" ></stop><stop id="SvgjsStop10375" stop-opacity="4.940000e-02" stop-color="#5c391d" offset="0.9506" ></stop><stop id="SvgjsStop10376" stop-opacity="0" stop-color="#6d4221" offset="1" ></stop></linearGradient><linearGradient id="SvgjsLinearGradient10378" x1="119.69" y1="83.23" x2="119.69" y2="113.07" gradientUnits="userSpaceOnUse" class="svga-on-canvas-glasses-gradient-single-1-null"><stop id="SvgjsStop10379" stop-opacity="1" stop-color="#211810" offset="0" ></stop><stop id="SvgjsStop10380" stop-opacity="0.5248" stop-color="#231910" offset="0.4752" ></stop><stop id="SvgjsStop10381" stop-opacity="0.3536" stop-color="#2a1d12" offset="0.6464" ></stop><stop id="SvgjsStop10382" stop-opacity="0.2315" stop-color="#352315" offset="0.7685" ></stop><stop id="SvgjsStop10383" stop-opacity="0.1329" stop-color="#462d18" offset="0.8671" ></stop><stop id="SvgjsStop10384" stop-opacity="4.940000e-02" stop-color="#5c391d" offset="0.9506" ></stop><stop id="SvgjsStop10385" stop-opacity="0" stop-color="#6d4221" offset="1" ></stop></linearGradient><linearGradient id="SvgjsLinearGradient10451" x1="81.0936" y1="85.914" x2="81.0936" y2="112.2733" gradientUnits="userSpaceOnUse" class="svga-on-canvas-glasses-gradient-single-0-null"><stop id="SvgjsStop10452" stop-opacity="1" stop-color="#211810" offset="0" ></stop><stop id="SvgjsStop10453" stop-opacity="0.7372" stop-color="#231b13" offset="0.2628" ></stop><stop id="SvgjsStop10454" stop-opacity="0.5527" stop-color="#2b231c" offset="0.4473" ></stop><stop id="SvgjsStop10455" stop-opacity="0.3921" stop-color="#38312c" offset="0.6079" ></stop><stop id="SvgjsStop10456" stop-opacity="0.2453" stop-color="#4b4641" offset="0.7547" ></stop><stop id="SvgjsStop10457" stop-opacity="0.1091" stop-color="#62605e" offset="0.8909" ></stop><stop id="SvgjsStop10458" stop-opacity="0" stop-color="#7a7a7a" offset="1" ></stop></linearGradient><linearGradient id="SvgjsLinearGradient10460" x1="-18.9064" y1="85.914" x2="-18.9064" y2="112.2733" gradientTransform="matrix(-1 0 0 1 100 0)" gradientUnits="userSpaceOnUse" class="svga-on-canvas-glasses-gradient-single-1-null"><stop id="SvgjsStop10461" stop-opacity="1" stop-color="#211810" offset="0" ></stop><stop id="SvgjsStop10462" stop-opacity="0.7372" stop-color="#231b13" offset="0.2628" ></stop><stop id="SvgjsStop10463" stop-opacity="0.5527" stop-color="#2b231c" offset="0.4473" ></stop><stop id="SvgjsStop10464" stop-opacity="0.3921" stop-color="#38312c" offset="0.6079" ></stop><stop id="SvgjsStop10465" stop-opacity="0.2453" stop-color="#4b4641" offset="0.7547" ></stop><stop id="SvgjsStop10466" stop-opacity="0.1091" stop-color="#62605e" offset="0.8909" ></stop><stop id="SvgjsStop10467" stop-opacity="0" stop-color="#7a7a7a" offset="1" ></stop></linearGradient><linearGradient id="SvgjsLinearGradient10544" x1="81.0936" y1="85.914" x2="81.0936" y2="112.2733" gradientUnits="userSpaceOnUse" class="svga-on-canvas-glasses-gradient-single-0-null"><stop id="SvgjsStop10545" stop-opacity="1" stop-color="#211810" offset="0" ></stop><stop id="SvgjsStop10546" stop-opacity="0.7372" stop-color="#231b13" offset="0.2628" ></stop><stop id="SvgjsStop10547" stop-opacity="0.5527" stop-color="#2b231c" offset="0.4473" ></stop><stop id="SvgjsStop10548" stop-opacity="0.3921" stop-color="#38312c" offset="0.6079" ></stop><stop id="SvgjsStop10549" stop-opacity="0.2453" stop-color="#4b4641" offset="0.7547" ></stop><stop id="SvgjsStop10550" stop-opacity="0.1091" stop-color="#62605e" offset="0.8909" ></stop><stop id="SvgjsStop10551" stop-opacity="0" stop-color="#7a7a7a" offset="1" ></stop></linearGradient><linearGradient id="SvgjsLinearGradient10553" x1="-18.9064" y1="85.914" x2="-18.9064" y2="112.2733" gradientTransform="matrix(-1 0 0 1 100 0)" gradientUnits="userSpaceOnUse" class="svga-on-canvas-glasses-gradient-single-1-null"><stop id="SvgjsStop10554" stop-opacity="1" stop-color="#211810" offset="0" ></stop><stop id="SvgjsStop10555" stop-opacity="0.7372" stop-color="#231b13" offset="0.2628" ></stop><stop id="SvgjsStop10556" stop-opacity="0.5527" stop-color="#2b231c" offset="0.4473" ></stop><stop id="SvgjsStop10557" stop-opacity="0.3921" stop-color="#38312c" offset="0.6079" ></stop><stop id="SvgjsStop10558" stop-opacity="0.2453" stop-color="#4b4641" offset="0.7547" ></stop><stop id="SvgjsStop10559" stop-opacity="0.1091" stop-color="#62605e" offset="0.8909" ></stop><stop id="SvgjsStop10560" stop-opacity="0" stop-color="#7a7a7a" offset="1" ></stop></linearGradient><linearGradient id="SvgjsLinearGradient10620" x1="81.0335" y1="111.8772" x2="81.0335" y2="93.2499" gradientTransform="matrix(1 0 0 -1 0 202)" gradientUnits="userSpaceOnUse" class="svga-on-canvas-glasses-gradient-single-0-null"><stop id="SvgjsStop10621" stop-opacity="1" stop-color="#bfeaf2" offset="0" ></stop><stop id="SvgjsStop10622" stop-opacity="0.649" stop-color="#a1cae3" offset="0.351" ></stop><stop id="SvgjsStop10623" stop-opacity="0" stop-color="#6086c4" offset="1" ></stop></linearGradient><linearGradient id="SvgjsLinearGradient10625" x1="-1736.9666" y1="111.8772" x2="-1736.9666" y2="93.2499" gradientTransform="matrix(-1 0 0 -1 -1618 202)" gradientUnits="userSpaceOnUse" class="svga-on-canvas-glasses-gradient-single-1-null"><stop id="SvgjsStop10626" stop-opacity="1" stop-color="#bfeaf2" offset="0" ></stop><stop id="SvgjsStop10627" stop-opacity="0.649" stop-color="#a1cae3" offset="0.351" ></stop><stop id="SvgjsStop10628" stop-opacity="0" stop-color="#6086c4" offset="1" ></stop></linearGradient></defs></svg>