<?xml version="1.0" encoding="UTF-8"?>
<svg width="74px" height="52px" viewBox="0 0 74 52" version="1.1" xmlns="http://www.w3.org/2000/svg" xmlns:xlink="http://www.w3.org/1999/xlink">
    <title>Shape</title>
    <g id="Component-Mapping" stroke="none" stroke-width="1" fill="none" fill-rule="evenodd">
        <g id="Brand/Logo/PhD" transform="translate(0.571429, 0.800000)" fill="#FF5B35">
            <path d="M35.5828631,29.5152148 L40.5054642,29.6019738 L40.5054642,36.6076313 L44.4697845,36.8186499 L44.4697845,29.6719867 L49.8624872,29.7670297 L49.8624872,50.4 L44.4697845,49.7651627 L44.4697845,42.6147583 L40.5054642,42.2892784 L40.5054642,49.2984098 L35.5828631,48.7189771 L35.5828631,29.5152148 Z M23.0646642,29.2944959 L34.2709608,29.4920642 L34.2709608,34.6337388 L30.7605821,34.477145 L30.7605821,48.1511331 L26.3101827,47.6272832 L26.3101827,34.2494694 L23.0646642,34.1051679 L23.0646642,29.2944959 Z M0.82690056,28.9023522 L3.84343965,28.9556191 L5.55685941,34.2928133 C5.60484648,34.4422454 5.6560473,34.6062146 5.70896602,34.7802971 L5.74895379,34.912686 C5.816059,35.1364423 5.8852641,35.3740943 5.95355621,35.6166455 C6.02193962,35.8594639 6.08931873,36.1070923 6.15295456,36.3505342 C6.21649909,36.5942433 6.27620903,36.8335878 6.3289802,37.059571 C6.38184268,36.8405356 6.44063963,36.6101877 6.50299726,36.3762769 C6.56526359,36.1420097 6.63118191,35.9040904 6.69819582,35.6699123 C6.74287177,35.5137342 6.78803464,35.3592188 6.83295405,35.2086359 L6.90005926,34.9859947 C6.96679927,34.7667812 7.03226109,34.5589693 7.09379703,34.3703085 L8.85916627,29.0439814 L11.920077,29.0980499 L12.8271386,44.8931803 L16.6643699,29.1816913 L20.0052052,29.2405699 L24.4892942,47.4129332 L20.3655647,46.9274746 L19.6826436,43.4787589 L16.7385964,43.1884635 L16.062888,46.4209052 L9.27905317,45.622259 L9.02642716,40.872247 L9.00241536,40.3296914 L9.00241536,40.3296914 C8.99511139,40.1437919 8.98890302,39.9527261 8.98479453,39.7563158 C8.98068605,39.5599054 8.97867746,39.3580616 8.97959046,39.150695 C8.98025999,39.0123913 8.98226858,38.8715539 8.98588675,38.7281563 L8.9923861,38.511779 L8.95552588,38.6803987 C8.93105473,38.7913248 8.9069659,38.8985433 8.88297407,39.0027888 L8.84702342,39.1570193 C8.79927373,39.3599321 8.75143273,39.5524231 8.70149185,39.7406386 C8.65155096,39.9286758 8.59960148,40.1125266 8.54354352,40.2980697 C8.48748556,40.4834348 8.42731912,40.6704922 8.3610356,40.8652992 L6.83322794,45.3343687 L5.41269733,45.1670859 L3.93711304,40.46945 C3.8783161,40.2816799 3.82262333,40.092841 3.76957826,39.9016861 C3.71662449,39.7105312 3.6664097,39.5171495 3.61856871,39.3202938 C3.57081901,39.1234381 3.52553441,38.9231975 3.48244099,38.7183251 C3.43925628,38.5137199 3.39835405,38.3043046 3.35936912,38.0891886 L3.35854742,38.6940076 L3.35854742,38.6940076 L3.35589635,39.0710851 C3.35522006,39.1328009 3.35440851,39.1940745 3.35343464,39.2550909 C3.35042176,39.4380509 3.34603937,39.6186059 3.3392832,39.8016549 C3.33270963,39.9846149 3.32376227,40.1699799 3.31189332,40.3626491 L3.07898802,44.8923787 L0,44.5299326 L0.82690056,28.9023522 Z M64.9935167,38.5656328 L64.9935167,39.0061976 L64.4397845,39.0061976 L64.4397845,40.4800321 L63.9344412,40.4800321 L63.9344412,39.0061976 L63.3752311,39.0061976 L63.3752311,38.5656328 L64.9935167,38.5656328 Z M65.9665879,38.5656328 L66.4449978,39.6879774 L66.9073391,38.5656328 L67.5846909,38.5656328 L67.5846909,40.4800321 L67.0955076,40.4800321 L67.0955076,39.3156441 L66.6170976,40.4800321 L66.2514427,40.4800321 L65.767646,39.3313213 L65.767646,40.4800321 L65.2784627,40.4800321 L65.2784627,38.5656328 L65.9665879,38.5656328 Z M57.3105632,26.3905284 C57.4473301,26.3908032 57.5840969,26.3960586 57.7208637,26.4066586 C57.8577218,26.4172585 57.9945799,26.4329357 58.1315293,26.4540465 C58.26857,26.4749791 58.4055195,26.5013453 58.5425602,26.5329669 C58.6796922,26.5644103 58.8168242,26.6012874 58.9539562,26.6434198 C59.0911795,26.6846616 59.2249335,26.7317822 59.3549441,26.785049 C59.4851373,26.8381377 59.6115873,26.8972835 59.7345679,26.9623082 C59.8575484,27.027422 59.9767857,27.0985039 60.0924623,27.1752865 C60.2081389,27.2523364 60.3202549,27.335087 60.4285362,27.4238948 C60.5370001,27.5125243 60.6401687,27.6077455 60.7384071,27.7095582 C60.8366455,27.81146 60.9298624,27.9199533 61.0180578,28.0351272 C61.1062532,28.1503011 61.1895184,28.2721557 61.2678535,28.4006909 C61.3460973,28.5293152 61.4195935,28.6647091 61.4881595,28.8067837 C61.5559951,28.9499272 61.6154311,29.1001076 61.6664676,29.2572358 C61.7175954,29.4143641 61.760141,29.5785293 61.7943784,29.7497314 C61.8286157,29.9210225 61.8543622,30.0992615 61.8714352,30.2845375 C61.8885995,30.4698134 61.8971817,30.6621263 61.8971817,30.8614761 C61.8971817,31.0031053 61.8933471,31.140548 61.8855867,31.273626 C61.8777349,31.4067931 61.8660485,31.5357736 61.8505276,31.6602114 C61.8349154,31.7848272 61.8154686,31.9049894 61.7920959,32.0207868 C61.7687232,32.1365843 61.7415159,32.2480171 61.7105653,32.354818 C61.6786104,32.461708 61.6440079,32.5653912 61.606849,32.6657787 C61.56969,32.7662553 61.5297921,32.8635252 61.4872465,32.9575883 C61.4448834,33.0516515 61.3997814,33.142597 61.3520317,33.230425 C61.3043733,33.3182529 61.2540673,33.4030523 61.2010222,33.4848231 C61.1480684,33.5665048 61.0934713,33.6462269 61.0369568,33.7238112 C60.9804423,33.8014846 60.9223758,33.8769311 60.8623919,33.9502398 C60.8024994,34.0235485 60.7409635,34.0948085 60.6777841,34.1638416 C60.6146961,34.2327856 60.5498734,34.2994137 60.4834986,34.3640821 C60.417215,34.4283943 60.3501098,34.4920829 60.2822742,34.5548807 C60.2143473,34.6177677 60.1458726,34.6798529 60.0764849,34.7410474 C60.0071885,34.802331 59.9371617,34.8626348 59.8663132,34.922315 L59.7596182,35.0111561 L59.7596182,35.0111561 L59.6517591,35.0988616 L57.9882802,36.4334719 L61.9300496,36.6230234 L61.9300496,40.4686572 L52.8797932,39.8739927 L52.8797932,36.4464768 L57.2007298,32.4221587 C57.2446449,32.3828766 57.2868253,32.3424366 57.3272711,32.3007495 C57.3676255,32.2588842 57.4063365,32.2156829 57.443039,32.1712345 C57.4798327,32.1267861 57.5147092,32.0809125 57.5477596,32.0336136 C57.5807188,31.9863148 57.611852,31.9375908 57.6409765,31.8874416 C57.6702837,31.8381832 57.6955737,31.788123 57.717303,31.7372612 C57.7391236,31.6865776 57.7572009,31.6351813 57.771535,31.5833397 C57.785869,31.531498 57.7966424,31.4791219 57.8037637,31.4265677 C57.8109764,31.3740135 57.8145371,31.3211029 57.8145371,31.2681924 C57.8145371,31.2049492 57.8104286,31.1433984 57.8021203,31.0837181 C57.7939034,31.0240379 57.7814866,30.9662282 57.7652353,30.9103782 C57.7488014,30.8544392 57.7283503,30.8006379 57.7040646,30.7486181 C57.6796876,30.6966874 57.6512934,30.6467163 57.6189733,30.598794 C57.5859229,30.5509607 57.5481248,30.5087392 57.5055792,30.4725748 C57.4630336,30.4363212 57.4157404,30.4059467 57.3636996,30.3812729 C57.3116588,30.3565991 57.2547792,30.3378934 57.1930606,30.3248884 C57.1314334,30.3117944 57.0650586,30.3046684 56.9936623,30.3033323 C56.917701,30.301818 56.8451178,30.3093003 56.776004,30.3259573 C56.7068902,30.3424362 56.6410632,30.3680898 56.5787056,30.402829 C56.5163479,30.4374792 56.4571858,30.481215 56.401493,30.5341256 C56.3458916,30.586947 56.2934856,30.6490323 56.2444577,30.7202032 C56.1946994,30.791285 56.1506017,30.8688693 56.1120733,30.952867 C56.0735448,31.0367756 56.0407683,31.1270086 56.0133784,31.2236549 C56.0083569,31.2412918 56.0039847,31.2596709 55.9999574,31.2784393 L55.9774977,31.3928974 L52.4437463,31.3053367 L52.4633148,31.095387 C52.4779025,30.9570832 52.495574,30.8221049 52.5163295,30.6904521 C52.5474626,30.4929729 52.5855346,30.3028869 52.6306366,30.1201942 C52.6757386,29.9375014 52.7278707,29.7622018 52.7869415,29.5942955 C52.8460124,29.4263001 52.9121133,29.265698 52.9852443,29.1125781 C53.0584666,28.95928 53.1363451,28.8123954 53.2189713,28.6719242 C53.3015974,28.5313639 53.3890624,28.397306 53.4810924,28.2695725 C53.5732137,28.1416609 53.6699,28.0203408 53.7712426,27.9052559 C53.8725852,27.790171 53.978584,27.6814996 54.0889652,27.5791524 C54.1995291,27.4777851 54.3136536,27.3830093 54.4311562,27.2948251 C54.5488414,27.2065518 54.6700873,27.1249591 54.7947112,27.0500471 C54.9194265,26.975046 55.0475198,26.9068145 55.1789,26.8451747 C55.3107366,26.7835348 55.4455861,26.7285755 55.583905,26.680386 C55.7215848,26.6321073 55.8607255,26.5897076 56.0014182,26.5534541 C56.1422934,26.5172006 56.2847208,26.4870042 56.428609,26.4626867 C56.5725885,26.4385474 56.7181201,26.4203761 56.8650212,26.408351 C57.0121961,26.3963259 57.1606493,26.3903578 57.3105632,26.3905284 Z M18.1982033,35.4786684 L18.1604965,35.4767087 L18.0829832,36.1006789 L18.0829832,36.1006789 L18.0563575,36.2920581 C18.0517283,36.3230991 18.0469807,36.3536815 18.042081,36.3837592 C18.0273817,36.473903 18.0112217,36.5597713 17.9929618,36.6401169 L17.5297988,38.9019977 L18.8527302,38.9991785 L18.4039013,36.6649688 L18.3756555,36.5280495 L18.3756555,36.5280495 L18.347752,36.3886583 C18.3294008,36.2948623 18.3113235,36.1992849 18.2938853,36.1012133 C18.2764471,36.0030527 18.2595566,35.9024871 18.2435792,35.798982 C18.2275105,35.6953878 18.2123547,35.5888541 18.1982033,35.4786684 Z M17.7234727,5.64811038 L17.7234727,16.7313529 C17.7234727,17.8098727 17.5649766,18.7789193 17.2829521,19.6255769 C17.0017493,20.4694732 16.5984789,21.1893771 16.1083826,21.7745106 C15.6211166,22.3564374 15.048942,22.803861 14.4265525,23.1078739 C13.8086368,23.4097489 13.1418757,23.5698167 12.4595937,23.5801494 C11.7827897,23.590393 11.1318235,23.452594 10.5374631,23.1768179 C9.9473024,22.9030014 9.41228669,22.4928112 8.96199702,21.9551546 C8.51426374,21.4205267 8.1495218,20.7587887 7.89707838,19.977423 C7.64545666,19.1984624 7.50476396,18.298627 7.50476396,17.2834396 L7.50476396,6.85115696 L11.0766786,6.43063401 L11.0766786,16.7505931 C11.0766786,17.1244407 11.1260717,17.4383409 11.2097021,17.6985289 C11.2935151,17.9589842 11.4118394,18.1658162 11.5497018,18.3252604 C11.6877469,18.4848828 11.8455126,18.5970282 12.0079346,18.6675756 C12.1707218,18.7383011 12.338074,18.7672505 12.4949267,18.7603917 C12.6515055,18.7535329 12.8194968,18.7097971 12.9834709,18.6247305 C13.1478102,18.5393967 13.3082236,18.412643 13.4490989,18.2398375 C13.5901568,18.0667649 13.7116766,17.8477295 13.798046,17.5782777 C13.8843241,17.3085587 13.9353606,16.9886014 13.9353606,16.6143974 L13.9353606,6.09410877 L17.7234727,5.64811038 Z M6.36175676,6.9856958 L6.36175676,11.3483207 L3.46819825,11.6113591 L3.46819825,13.1149446 L5.78081735,12.926462 L5.78081735,17.4023903 L3.46819825,17.5270062 L3.46819825,19.0276522 L6.7507844,18.8816583 L6.7507844,23.2575554 L0.300010516,23.3713933 L0.300010516,7.6992754 L6.36175676,6.9856958 Z M39.3362175,3.10373724 L39.3362175,8.35087664 L35.1678425,8.72980157 L35.1678425,10.5317883 L38.4964437,10.260555 L38.4964437,15.6399707 L35.1678425,15.8192786 L35.1678425,17.6177914 L39.8991709,17.4073963 L39.8991709,22.6730633 L26.0328601,22.9175741 L23.2110631,16.7169762 L23.0513801,16.7253492 L23.0513801,22.9702174 L19.1447611,23.0390723 L19.1447611,5.48079195 L24.4600418,4.85504027 C25.1069908,4.77888117 25.7104812,4.86653095 26.2527096,5.0951864 C26.7982247,5.32517798 27.2809258,5.69760044 27.6827354,6.18849261 C28.0862796,6.68152258 28.4073804,7.29320042 28.6279602,7.9983179 C28.8489053,8.7051278 28.9684165,9.50430845 28.9684165,10.3695827 C28.9684165,10.8341087 28.9197538,11.3079876 28.8318322,11.769485 C28.7440933,12.230448 28.6170043,12.6784951 28.4601515,13.0920702 C28.3034814,13.5048436 28.1172302,13.8828778 27.9105279,14.2047947 C27.7042821,14.5259991 27.477859,14.7911753 27.2403888,14.9792126 L30.6329909,21.704373 L30.6329909,4.12836665 L39.3362175,3.10373724 Z M65.6999839,0 L72.8571429,22.0919293 L66.2749888,22.2079939 L65.1886148,17.9877999 L60.5450254,18.1585566 L59.4881411,22.3277107 L49.8127563,22.4982893 L46.5394827,15.5254114 L46.5138275,22.5564552 L41.2901204,22.6485588 L41.2901204,2.87373676 L46.5138275,2.25876315 L46.5138275,9.92589139 L49.9943512,1.84901828 L56.1045776,1.1296488 L51.1199841,12.0629781 L54.8967751,19.4328632 L60.4285271,0.620674407 L65.6999839,0 Z M62.8455016,8.20674442 L62.7826875,8.2118217 L62.6828801,8.88464455 L62.6828801,8.88464455 L62.6629024,9.01233847 C62.6428165,9.13855771 62.6214524,9.26050135 62.5978058,9.37710049 C62.5742505,9.49361055 62.5482301,9.60468704 62.5185577,9.70935013 L61.7890738,12.6368882 L63.8756351,12.5077295 L63.1667849,9.6607152 C63.1370213,9.55061853 63.1071663,9.43856222 63.0778591,9.3240118 C63.0486433,9.20946139 63.0198839,9.0923278 62.9924027,8.97198751 C62.9648302,8.8517363 62.9385359,8.72827839 62.9137937,8.60090118 C62.8891428,8.47361304 62.8662266,8.34240561 62.8455016,8.20674442 Z M23.9015621,9.63943519 L23.0513801,9.71728671 L23.0513801,12.3044693 L23.9015621,12.2389992 C24.0161431,12.2300917 24.13465,12.1945508 24.2478615,12.1322874 C24.3612556,12.070024 24.4694456,11.9811271 24.5633016,11.865775 C24.6572489,11.7503339 24.7367709,11.6084375 24.7929201,11.4404421 C24.8490694,11.2723576 24.8817547,11.0780851 24.8817547,10.858159 C24.8817547,10.6374312 24.8490694,10.4481469 24.7929201,10.2889699 C24.7367709,10.1299711 24.6572489,10.0012577 24.5633016,9.90140468 C24.4694456,9.80172979 24.3612556,9.73091518 24.2478615,9.68771382 C24.13465,9.64460154 24.0161431,9.62892434 23.9015621,9.63943519 Z" id="Shape"></path>
        </g>
    </g>
</svg>